<mxfile host="65bd71144e">
    <diagram name="第 1 页" id="Ki77Z5obJ64a2e4a-aWC">
        <mxGraphModel dx="608" dy="439" grid="1" gridSize="10" guides="1" tooltips="1" connect="1" arrows="1" fold="1" page="1" pageScale="1" pageWidth="827" pageHeight="1169" math="0" shadow="0">
            <root>
                <mxCell id="0"/>
                <mxCell id="1" parent="0"/>
                <mxCell id="wuJfsc6I9cQTVYBFe4lC-2" style="edgeStyle=orthogonalEdgeStyle;rounded=0;orthogonalLoop=1;jettySize=auto;html=1;" parent="1" source="wuJfsc6I9cQTVYBFe4lC-1" edge="1">
                    <mxGeometry relative="1" as="geometry">
                        <mxPoint x="180" y="200" as="targetPoint"/>
                    </mxGeometry>
                </mxCell>
                <mxCell id="wuJfsc6I9cQTVYBFe4lC-1" value="MCP" style="whiteSpace=wrap;html=1;aspect=fixed;direction=west;" parent="1" vertex="1">
                    <mxGeometry x="140" y="50" width="80" height="80" as="geometry"/>
                </mxCell>
                <mxCell id="4" value="" style="whiteSpace=wrap;html=1;" vertex="1" parent="1">
                    <mxGeometry x="120" y="200" width="120" height="60" as="geometry"/>
                </mxCell>
            </root>
        </mxGraphModel>
    </diagram>
</mxfile>